<svg width="102" height="103" viewBox="0 0 102 103" fill="none" xmlns="http://www.w3.org/2000/svg">
<path d="M77.8735 53.3502C78.2337 51.9013 79.6939 51.0204 81.1349 51.3825C82.576 51.7448 83.4522 53.2128 83.0919 54.6616L72.3333 97.9287C71.9731 99.3776 70.513 100.259 69.0719 99.8963C67.6308 99.5341 66.7546 98.0661 67.1149 96.6173L77.8735 53.3502ZM59.7531 62.9103C60.8034 61.8543 62.5068 61.8543 63.5572 62.9103C64.6076 63.9664 64.6076 65.679 63.5572 66.735L59.1289 71.1872L54.7007 75.6394L63.5572 84.5439L63.6526 84.645C64.6064 85.7066 64.5747 87.3456 63.5572 88.3686C62.5397 89.3916 60.9095 89.4235 59.8537 88.4645L59.7531 88.3686L48.9945 77.5518C47.9441 76.4958 47.9441 74.7831 48.9945 73.7271L59.7531 62.9103ZM86.6496 62.9103C87.6671 61.8873 89.2973 61.8554 90.3531 62.8144L90.4538 62.9103L101.212 73.7271L101.308 73.8283C102.231 74.8555 102.231 76.4234 101.308 77.4506L101.212 77.5518L90.4538 88.3686C89.4034 89.4246 87.7 89.4246 86.6496 88.3686C85.5992 87.3125 85.5992 85.5999 86.6496 84.5439L95.5061 75.6394L86.6496 66.735L86.5542 66.6339C85.6004 65.5723 85.6321 63.9333 86.6496 62.9103Z" fill="url(#paint0_linear_34_28)"/>
<path d="M45.2971 2.68071C48.8522 -0.893555 54.616 -0.893588 58.1711 2.68071L100.802 45.542C101.119 45.8607 101.407 46.1974 101.667 46.5483H82.2822L55.7579 19.8805C53.4955 17.6061 49.8276 17.6061 47.5653 19.8805L19.7736 47.8224C17.5114 50.097 17.5114 53.7848 19.7736 56.0593L47.5394 83.9752V103C46.7322 102.579 45.9744 102.028 45.2971 101.347L2.6663 58.4856C-0.888789 54.9113 -0.888744 49.1163 2.6663 45.542L45.2971 2.68071Z" fill="url(#paint1_linear_34_28)"/>
<defs>
<linearGradient id="paint0_linear_34_28" x1="27.75" y1="82.1982" x2="79.4432" y2="22.5265" gradientUnits="userSpaceOnUse">
<stop stop-color="#2A7DE1"/>
<stop offset="1" stop-color="#00C1DE"/>
</linearGradient>
<linearGradient id="paint1_linear_34_28" x1="27.75" y1="82.1982" x2="79.4432" y2="22.5265" gradientUnits="userSpaceOnUse">
<stop stop-color="#2A7DE1"/>
<stop offset="1" stop-color="#00C1DE"/>
</linearGradient>
</defs>
</svg>
