<svg width="527" height="117" viewBox="0 0 527 117" fill="none" xmlns="http://www.w3.org/2000/svg">
<g clip-path="url(#clip0_24_139)">
<path d="M77.8735 53.3502C78.2337 51.9013 79.6939 51.0204 81.1349 51.3825C82.576 51.7448 83.4522 53.2128 83.0919 54.6616L72.3333 97.9287C71.9731 99.3776 70.513 100.259 69.0719 99.8963C67.6308 99.5341 66.7546 98.0661 67.1149 96.6173L77.8735 53.3502ZM59.7531 62.9103C60.8034 61.8543 62.5068 61.8543 63.5572 62.9103C64.6076 63.9664 64.6076 65.679 63.5572 66.735L59.1289 71.1872L54.7007 75.6394L63.5572 84.5439L63.6526 84.645C64.6064 85.7066 64.5747 87.3456 63.5572 88.3686C62.5397 89.3916 60.9095 89.4235 59.8537 88.4645L59.7531 88.3686L48.9945 77.5518C47.9441 76.4958 47.9441 74.7831 48.9945 73.7271L59.7531 62.9103ZM86.6496 62.9103C87.6671 61.8873 89.2973 61.8554 90.3531 62.8144L90.4538 62.9103L101.212 73.7271L101.308 73.8283C102.231 74.8555 102.231 76.4234 101.308 77.4506L101.212 77.5518L90.4538 88.3686C89.4034 89.4246 87.7 89.4246 86.6496 88.3686C85.5992 87.3125 85.5992 85.5999 86.6496 84.5439L95.5061 75.6394L86.6496 66.735L86.5542 66.6339C85.6004 65.5723 85.6321 63.9333 86.6496 62.9103Z" fill="url(#paint0_linear_24_139)"/>
<path d="M45.2971 2.68071C48.8522 -0.893555 54.616 -0.893588 58.1711 2.68071L100.802 45.542C101.119 45.8607 101.407 46.1974 101.667 46.5483H82.2822L55.7579 19.8805C53.4955 17.6061 49.8276 17.6061 47.5653 19.8805L19.7736 47.8224C17.5114 50.097 17.5114 53.7848 19.7736 56.0593L47.5394 83.9752V103C46.7322 102.579 45.9744 102.028 45.2971 101.347L2.6663 58.4856C-0.888789 54.9113 -0.888744 49.1163 2.6663 45.542L45.2971 2.68071Z" fill="url(#paint1_linear_24_139)"/>
<path d="M510.108 104.181C504.922 104.181 500.848 103.092 497.885 100.916C494.968 98.6941 493.44 95.6385 493.301 91.7494H501.982C502.121 93.0457 502.839 94.2264 504.135 95.2912C505.431 96.3561 507.469 96.8885 510.246 96.8885C512.561 96.8885 514.39 96.4718 515.733 95.6385C517.122 94.8051 517.816 93.6708 517.816 92.2355C517.816 90.9855 517.284 89.9901 516.219 89.2493C515.2 88.5085 513.441 88.0224 510.941 87.7909L507.607 87.4436C503.394 86.9807 500.153 85.7769 497.885 83.8324C495.616 81.8878 494.482 79.2951 494.482 76.0542C494.482 73.4615 495.13 71.2855 496.426 69.5262C497.723 67.7668 499.505 66.4473 501.774 65.5677C504.089 64.6417 506.728 64.1787 509.691 64.1787C514.321 64.1787 518.071 65.1973 520.941 67.2344C523.812 69.2715 525.317 72.2578 525.456 76.1931H516.775C516.682 74.8968 516.034 73.7856 514.83 72.8597C513.626 71.9337 511.89 71.4707 509.621 71.4707C507.584 71.4707 506.01 71.8642 504.899 72.6513C503.788 73.4384 503.232 74.4569 503.232 75.707C503.232 76.9108 503.672 77.8367 504.552 78.4849C505.478 79.1331 506.959 79.5729 508.996 79.8044L512.33 80.1516C516.775 80.6146 520.247 81.8415 522.747 83.8324C525.293 85.8232 526.567 88.5085 526.567 91.8883C526.567 94.3884 525.872 96.5644 524.483 98.4164C523.141 100.222 521.242 101.634 518.789 102.653C516.335 103.671 513.441 104.181 510.108 104.181Z" fill="#EAF2F3"/>
<path d="M467.467 103V65.2898H475.107V81.2628H474.898C474.898 75.8459 476.056 71.7485 478.371 68.9706C480.686 66.1927 484.089 64.8037 488.579 64.8037H489.968V73.2069H487.329C484.089 73.2069 481.565 74.0865 479.76 75.8459C478 77.5589 477.121 80.059 477.121 83.3462V103H467.467Z" fill="#EAF2F3"/>
<path d="M441.278 104.32C438.037 104.32 435.189 103.764 432.735 102.653C430.328 101.542 428.314 100.06 426.694 98.2083C425.119 96.3101 423.916 94.2035 423.082 91.8886C422.295 89.5737 421.902 87.2125 421.902 84.805V83.4855C421.902 80.9854 422.295 78.5778 423.082 76.2629C423.916 73.9017 425.119 71.8183 426.694 70.0126C428.314 68.1607 430.305 66.7023 432.666 65.6374C435.027 64.5263 437.759 63.9707 440.861 63.9707C444.935 63.9707 448.338 64.8735 451.07 66.6792C453.848 68.4385 455.931 70.7766 457.32 73.6934C458.709 76.5639 459.403 79.6658 459.403 82.9993V86.4717H425.999V80.5687H453.361L450.375 83.4855C450.375 81.0779 450.028 79.0177 449.333 77.3046C448.639 75.5916 447.574 74.2721 446.139 73.3461C444.75 72.4202 442.991 71.9572 440.861 71.9572C438.731 71.9572 436.925 72.4433 435.444 73.4156C433.962 74.3878 432.828 75.7999 432.041 77.6519C431.3 79.4575 430.93 81.6335 430.93 84.1799C430.93 86.5412 431.3 88.6477 432.041 90.4997C432.782 92.3053 433.916 93.7406 435.444 94.8054C436.972 95.824 438.916 96.3333 441.278 96.3333C443.639 96.3333 445.56 95.8703 447.042 94.9443C448.523 93.972 449.472 92.7914 449.889 91.4025H458.778C458.223 93.9952 457.158 96.2638 455.584 98.2083C454.01 100.153 451.996 101.658 449.542 102.722C447.134 103.787 444.38 104.32 441.278 104.32Z" fill="#EAF2F3"/>
<path d="M375.843 116.89V65.29H383.482V81.5407L382.301 81.4713C382.487 77.6285 383.274 74.4108 384.663 71.8181C386.098 69.2253 387.996 67.304 390.357 66.0539C392.718 64.7576 395.357 64.1094 398.274 64.1094C400.96 64.1094 403.367 64.5955 405.497 65.5678C407.673 66.54 409.525 67.9058 411.053 69.6652C412.627 71.4245 413.831 73.4848 414.664 75.846C415.497 78.1609 415.914 80.661 415.914 83.3463V84.8047C415.914 87.5363 415.497 90.0828 414.664 92.444C413.877 94.7589 412.696 96.8192 411.122 98.6248C409.594 100.384 407.742 101.773 405.566 102.792C403.39 103.764 400.96 104.25 398.274 104.25C395.45 104.25 392.857 103.671 390.496 102.514C388.181 101.31 386.306 99.4813 384.871 97.0275C383.436 94.5274 382.625 91.3097 382.44 87.3743L385.496 92.0273V116.89H375.843ZM395.844 96.1247C397.927 96.1247 399.733 95.6154 401.261 94.5968C402.835 93.5783 404.062 92.1662 404.941 90.3605C405.821 88.5086 406.261 86.4252 406.261 84.1103C406.261 81.7028 405.821 79.6193 404.941 77.86C404.062 76.1006 402.835 74.7348 401.261 73.7626C399.733 72.744 397.927 72.2347 395.844 72.2347C393.945 72.2347 392.186 72.6514 390.566 73.4848C388.991 74.3182 387.695 75.5451 386.677 77.1655C385.704 78.786 385.218 80.7305 385.218 82.9991V85.777C385.218 87.953 385.727 89.805 386.746 91.3328C387.765 92.8607 389.084 94.0413 390.704 94.8746C392.325 95.708 394.038 96.1247 395.844 96.1247Z" fill="#EAF2F3"/>
<path d="M346.834 104.32C343.5 104.32 340.56 103.787 338.014 102.722C335.467 101.658 333.315 100.222 331.555 98.4167C329.796 96.5648 328.453 94.4813 327.527 92.1664C326.648 89.8515 326.208 87.444 326.208 84.9439V83.4855C326.208 80.8928 326.671 78.4389 327.597 76.124C328.569 73.7628 329.935 71.6794 331.694 69.8737C333.5 68.0218 335.676 66.5866 338.222 65.568C340.769 64.5031 343.639 63.9707 346.834 63.9707C350.028 63.9707 352.899 64.5031 355.445 65.568C357.992 66.5866 360.145 68.0218 361.904 69.8737C363.709 71.6794 365.075 73.7628 366.001 76.124C366.927 78.4389 367.39 80.8928 367.39 83.4855V84.9439C367.39 87.444 366.927 89.8515 366.001 92.1664C365.122 94.4813 363.802 96.5648 362.043 98.4167C360.283 100.222 358.131 101.658 355.584 102.722C353.038 103.787 350.121 104.32 346.834 104.32ZM346.834 96.0555C349.195 96.0555 351.186 95.5462 352.806 94.5276C354.427 93.4628 355.654 92.0507 356.487 90.2913C357.32 88.4857 357.737 86.4486 357.737 84.1799C357.737 81.865 357.297 79.8279 356.417 78.0686C355.584 76.2629 354.334 74.8508 352.667 73.8323C351.047 72.7674 349.102 72.235 346.834 72.235C344.565 72.235 342.597 72.7674 340.931 73.8323C339.31 74.8508 338.06 76.2629 337.181 78.0686C336.301 79.8279 335.861 81.865 335.861 84.1799C335.861 86.4486 336.278 88.4857 337.111 90.2913C337.991 92.0507 339.241 93.4628 340.861 94.5276C342.482 95.5462 344.473 96.0555 346.834 96.0555Z" fill="#EAF2F3"/>
<path d="M308.034 103V52.3032H317.687V103H308.034ZM303.312 59.5258V52.3032H317.687V59.5258H303.312Z" fill="#EAF2F3"/>
<path d="M281.358 104.32C278.117 104.32 275.27 103.764 272.816 102.653C270.409 101.542 268.395 100.06 266.774 98.2083C265.2 96.3101 263.996 94.2035 263.163 91.8886C262.376 89.5737 261.982 87.2125 261.982 84.805V83.4855C261.982 80.9854 262.376 78.5778 263.163 76.2629C263.996 73.9017 265.2 71.8183 266.774 70.0126C268.395 68.1607 270.386 66.7023 272.747 65.6374C275.108 64.5263 277.84 63.9707 280.942 63.9707C285.016 63.9707 288.419 64.8735 291.15 66.6792C293.928 68.4385 296.012 70.7766 297.401 73.6934C298.79 76.5639 299.484 79.6658 299.484 82.9993V86.4717H266.08V80.5687H293.442L290.456 83.4855C290.456 81.0779 290.109 79.0177 289.414 77.3046C288.72 75.5916 287.655 74.2721 286.22 73.3461C284.831 72.4202 283.071 71.9572 280.942 71.9572C278.812 71.9572 277.006 72.4433 275.525 73.4156C274.043 74.3878 272.909 75.7999 272.122 77.6519C271.381 79.4575 271.011 81.6335 271.011 84.1799C271.011 86.5412 271.381 88.6477 272.122 90.4997C272.862 92.3053 273.997 93.7406 275.525 94.8054C277.053 95.824 278.997 96.3333 281.358 96.3333C283.719 96.3333 285.641 95.8703 287.122 94.9443C288.604 93.972 289.553 92.7914 289.97 91.4025H298.859C298.303 93.9952 297.239 96.2638 295.664 98.2083C294.09 100.153 292.076 101.658 289.623 102.722C287.215 103.787 284.46 104.32 281.358 104.32Z" fill="#EAF2F3"/>
<path d="M232.31 103L220.504 65.29H230.435L241.755 103H232.31ZM235.157 103V95.083H245.366V103H235.157ZM238.977 103L248.699 65.29H258.005L247.797 103H238.977Z" fill="#EAF2F3"/>
<path d="M198.889 104.32C195.648 104.32 192.801 103.764 190.347 102.653C187.94 101.542 185.926 100.06 184.305 98.2083C182.731 96.3101 181.527 94.2035 180.694 91.8886C179.907 89.5737 179.513 87.2125 179.513 84.805V83.4855C179.513 80.9854 179.907 78.5778 180.694 76.2629C181.527 73.9017 182.731 71.8183 184.305 70.0126C185.926 68.1607 187.917 66.7023 190.278 65.6374C192.639 64.5263 195.371 63.9707 198.473 63.9707C202.547 63.9707 205.95 64.8735 208.681 66.6792C211.459 68.4385 213.543 70.7766 214.932 73.6934C216.321 76.5639 217.015 79.6658 217.015 82.9993V86.4717H183.611V80.5687H210.973L207.987 83.4855C207.987 81.0779 207.64 79.0177 206.945 77.3046C206.251 75.5916 205.186 74.2721 203.751 73.3461C202.362 72.4202 200.602 71.9572 198.473 71.9572C196.343 71.9572 194.537 72.4433 193.056 73.4156C191.574 74.3878 190.44 75.7999 189.653 77.6519C188.912 79.4575 188.542 81.6335 188.542 84.1799C188.542 86.5412 188.912 88.6477 189.653 90.4997C190.394 92.3053 191.528 93.7406 193.056 94.8054C194.584 95.824 196.528 96.3333 198.889 96.3333C201.251 96.3333 203.172 95.8703 204.653 94.9443C206.135 93.972 207.084 92.7914 207.501 91.4025H216.39C215.834 93.9952 214.77 96.2638 213.195 98.2083C211.621 100.153 209.607 101.658 207.154 102.722C204.746 103.787 201.991 104.32 198.889 104.32Z" fill="#EAF2F3"/>
<path d="M136.723 103.278V94.1107H147.209C149.848 94.1107 152.187 93.7172 154.224 92.9301C156.307 92.0967 158.066 90.9393 159.502 89.4577C160.937 87.9762 162.025 86.24 162.766 84.2492C163.553 82.212 163.946 79.9666 163.946 77.5128C163.946 74.9663 163.553 72.6977 162.766 70.7069C162.025 68.6698 160.937 66.9336 159.502 65.4983C158.066 64.0631 156.307 62.9751 154.224 62.2343C152.187 61.4935 149.848 61.1231 147.209 61.1231H136.723V51.9561H146.584C151.168 51.9561 155.173 52.6274 158.599 53.97C162.025 55.3127 164.872 57.1646 167.141 59.5258C169.41 61.8408 171.099 64.5029 172.211 67.5123C173.368 70.4754 173.947 73.5542 173.947 76.7488V78.2767C173.947 81.3324 173.368 84.3418 172.211 87.3049C171.099 90.268 169.41 92.9533 167.141 95.3608C164.872 97.7683 162.025 99.6897 158.599 101.125C155.173 102.56 151.168 103.278 146.584 103.278H136.723ZM128.25 103.278V51.9561H138.112V103.278H128.25Z" fill="#EAF2F3"/>
<path d="M128.725 9.30699H130.8C131.16 9.30699 131.467 9.5737 131.518 9.93107L131.868 12.4082H131.941C133.292 9.88923 135.736 9.08734 137.525 9.08734C137.788 9.08734 138.025 9.09606 138.245 9.11175C138.622 9.14138 138.913 9.45691 138.913 9.83519V12.4431C138.913 12.8649 138.554 13.2014 138.133 13.1665C137.896 13.1473 137.656 13.1386 137.415 13.1386C134.86 13.1386 132.306 14.6709 132.306 18.5043V28.5087C132.306 28.9096 131.982 29.2339 131.581 29.2339H128.725C128.324 29.2339 128 28.9096 128 28.5087V10.0322C128 9.63123 128.324 9.30699 128.725 9.30699Z" fill="#EAF2F3"/>
<path d="M147.599 11.5332H147.672C148.804 9.96425 150.849 8.8329 153.219 8.8329C157.563 8.8329 160.337 11.3519 160.337 16.0237V28.5105C160.337 28.9114 160.013 29.2357 159.612 29.2357H156.756C156.355 29.2357 156.031 28.9114 156.031 28.5105V17.3381C156.031 14.2718 154.717 12.7761 152.017 12.7761C149.607 12.7761 147.601 14.2003 147.601 17.0836V28.5122C147.601 28.9132 147.277 29.2374 146.876 29.2374H144.02C143.619 29.2374 143.295 28.9132 143.295 28.5122V0.725124C143.295 0.324181 143.619 -6.10352e-05 144.02 -6.10352e-05H146.876C147.277 -6.10352e-05 147.601 0.324181 147.601 0.725124V11.5332H147.599Z" fill="#EAF2F3"/>
<path d="M164.134 19.2697C164.134 13.2102 168.549 8.83118 174.281 8.83118C180.013 8.83118 184.392 13.2102 184.392 19.2697C184.392 25.3291 180.049 29.7081 174.281 29.7081C168.513 29.7081 164.134 25.3291 164.134 19.2697ZM180.048 19.2697C180.048 15.1452 177.238 12.7726 174.281 12.7726C171.325 12.7726 168.478 15.1452 168.478 19.2697C168.478 23.3941 171.325 25.7667 174.281 25.7667C177.238 25.7667 180.048 23.3941 180.048 19.2697Z" fill="#EAF2F3"/>
<path d="M215.522 15.9853V28.5087C215.522 28.9096 215.198 29.2338 214.797 29.2338H211.942C211.541 29.2338 211.217 28.9096 211.217 28.5087V16.7523C211.217 14.1967 210.232 12.8475 207.859 12.8475C205.487 12.8475 204.172 14.6726 204.172 16.6791V28.5087C204.172 28.9096 203.848 29.2338 203.447 29.2338H200.592C200.191 29.2338 199.866 28.9096 199.866 28.5087V16.7523C199.866 14.1967 198.882 12.8475 196.509 12.8475C194.136 12.8475 192.859 14.7824 192.859 16.8987V28.5087C192.859 28.9096 192.534 29.2338 192.134 29.2338H189.278C188.877 29.2338 188.553 28.9096 188.553 28.5087V10.0321C188.553 9.63119 188.877 9.30695 189.278 9.30695H191.258C191.614 9.30695 191.917 9.56495 191.975 9.91534L192.35 12.1903H192.459C193.481 10.3285 195.27 8.83279 197.862 8.83279C200.24 8.83279 201.852 9.74799 202.894 11.3047C203.172 11.7178 203.768 11.7579 204.073 11.3657C205.272 9.81598 206.967 8.83279 209.177 8.83279C213.521 8.83279 215.528 11.7527 215.528 15.987L215.522 15.9853Z" fill="#EAF2F3"/>
<path d="M225.196 10.4663C225.196 11.1026 225.963 11.4443 226.419 11.0032C227.859 9.61212 229.885 8.8329 231.911 8.8329C236.582 8.8329 240.817 12.8842 240.817 19.2714C240.817 25.6586 236.438 29.7098 231.766 29.7098C229.507 29.7098 227.43 28.7912 225.959 27.1891C225.539 26.7324 224.781 26.9555 224.697 27.5692L224.554 28.6081C224.505 28.9672 224.197 29.2339 223.836 29.2339H221.617C221.216 29.2339 220.892 28.9097 220.892 28.5088V0.725124C220.892 0.324181 221.216 -6.10352e-05 221.617 -6.10352e-05H224.472C224.873 -6.10352e-05 225.197 0.324181 225.197 0.725124V10.4663H225.196ZM225.122 19.2696C225.122 23.1013 227.568 25.7667 230.779 25.7667C233.99 25.7667 236.473 23.103 236.473 19.3062C236.473 15.5095 233.99 12.7726 230.743 12.7726C227.495 12.7726 225.122 15.4729 225.122 19.2696Z" fill="#EAF2F3"/>
<path d="M244.614 21.4242V10.0321C244.614 9.63119 244.938 9.30695 245.339 9.30695H248.194C248.595 9.30695 248.919 9.63119 248.919 10.0321V21.4608C248.919 24.1976 250.452 25.7683 253.044 25.7683C255.636 25.7683 257.351 24.1994 257.351 21.4242V10.0321C257.351 9.63119 257.676 9.30695 258.076 9.30695H260.932C261.333 9.30695 261.657 9.63119 261.657 10.0321V21.3875C261.657 26.2791 258.373 29.7097 253.044 29.7097C247.715 29.7097 244.614 26.2791 244.614 21.4242Z" fill="#EAF2F3"/>
<path d="M279.834 10.9056V13.1073C279.834 13.6547 279.248 14.0138 278.769 13.7523C277.402 13.0045 275.636 12.5181 273.848 12.5181C271.585 12.5181 270.344 13.3932 270.344 14.7808C270.344 16.2765 271.839 16.8256 274.358 17.5543C277.496 18.3945 281 19.4527 281 23.5406C281 27.3007 278.043 29.7081 273.117 29.7081C270.596 29.7081 268.238 29.0544 266.446 27.8097C266.254 27.6773 266.146 27.4541 266.146 27.2223V24.8619C266.146 24.2727 266.807 23.9363 267.291 24.271C268.801 25.3152 270.704 26.0595 272.971 26.0595C275.416 26.0595 276.802 25.038 276.802 23.5772C276.802 21.9351 275.087 21.3877 272.35 20.5474C269.102 19.5991 266.146 18.4312 266.146 14.8907C266.146 11.3501 268.993 8.83118 273.701 8.83118C275.826 8.83118 278.014 9.3925 279.485 10.2833C279.701 10.414 279.832 10.6511 279.832 10.9039L279.834 10.9056Z" fill="#EAF2F3"/>
</g>
<defs>
<linearGradient id="paint0_linear_24_139" x1="27.75" y1="82.1982" x2="79.4432" y2="22.5265" gradientUnits="userSpaceOnUse">
<stop stop-color="#2A7DE1"/>
<stop offset="1" stop-color="#00C1DE"/>
</linearGradient>
<linearGradient id="paint1_linear_24_139" x1="27.75" y1="82.1982" x2="79.4432" y2="22.5265" gradientUnits="userSpaceOnUse">
<stop stop-color="#2A7DE1"/>
<stop offset="1" stop-color="#00C1DE"/>
</linearGradient>
<clipPath id="clip0_24_139">
<rect width="527" height="117" fill="white"/>
</clipPath>
</defs>
</svg>
